<svg width="20" height="20" viewBox="0 0 20 20" fill="none" xmlns="http://www.w3.org/2000/svg">
<path fill-rule="evenodd" clip-rule="evenodd" d="M13.794 1.66669C12.5876 1.66667 11.81 1.81039 10.9186 2.24673C10.5885 2.40828 10.2789 2.60283 9.99132 2.82981C9.71484 2.61556 9.41757 2.42994 9.10118 2.27345C8.19244 1.82398 7.37491 1.66667 6.2118 1.66667C3.09671 1.66667 0.833008 4.24773 0.833008 7.5999C0.833008 10.1315 2.24453 12.5769 4.87371 14.9416C6.25375 16.1828 8.01578 17.4111 9.27768 18.0646L9.99967 18.4384L10.7217 18.0646C11.9836 17.4111 13.7456 16.1828 15.1256 14.9416C17.7548 12.5769 19.1663 10.1315 19.1663 7.5999C19.1663 4.28321 16.8813 1.67947 13.794 1.66669ZM17.4997 7.5999C17.4997 9.58325 16.3215 11.6244 14.0111 13.7024C12.7515 14.8353 11.1321 15.9675 9.99967 16.5614C8.86721 15.9675 7.24786 14.8353 5.98824 13.7024C3.67786 11.6244 2.49967 9.58325 2.49967 7.5999C2.49967 5.1231 4.06938 3.33334 6.2118 3.33334C7.13658 3.33334 7.70645 3.443 8.36229 3.76737C8.74968 3.95898 9.09207 4.21198 9.38845 4.52815L10.0016 5.18226L10.6092 4.52296C10.9123 4.19413 11.2597 3.93537 11.6513 3.74369C12.2879 3.43208 12.8222 3.33334 13.7906 3.33334C15.9065 3.34211 17.4997 5.15747 17.4997 7.5999Z" fill="white"/>
</svg>
